<?xml version="1.0" encoding="utf-8" standalone="no"?>
<!DOCTYPE svg PUBLIC "-//W3C//DTD SVG 1.1//EN"
  "http://www.w3.org/Graphics/SVG/1.1/DTD/svg11.dtd">
<svg xmlns:xlink="http://www.w3.org/1999/xlink" width="432pt" height="288pt" viewBox="0 0 432 288" xmlns="http://www.w3.org/2000/svg" version="1.1">
 <metadata>
  <rdf:RDF xmlns:dc="http://purl.org/dc/elements/1.1/" xmlns:cc="http://creativecommons.org/ns#" xmlns:rdf="http://www.w3.org/1999/02/22-rdf-syntax-ns#">
   <cc:Work>
    <dc:type rdf:resource="http://purl.org/dc/dcmitype/StillImage"/>
    <dc:date>2026-07-20T22:06:25.649918</dc:date>
    <dc:format>image/svg+xml</dc:format>
    <dc:creator>
     <cc:Agent>
      <dc:title>Matplotlib v3.11.1, https://matplotlib.org/</dc:title>
     </cc:Agent>
    </dc:creator>
   </cc:Work>
  </rdf:RDF>
 </metadata>
 <defs>
  <style type="text/css">*{stroke-linejoin: round; stroke-linecap: butt}</style>
 </defs>
 <g id="figure_1">
  <g id="patch_1">
   <path d="M 0 288 
L 432 288 
L 432 0 
L 0 0 
z
" style="fill: #ffffff"/>
  </g>
  <g id="axes_1">
   <g id="patch_2">
    <path d="M 47.962344 245.715312 
L 421.2 245.715312 
L 421.2 26.16 
L 47.962344 26.16 
z
" style="fill: #ffffff"/>
   </g>
   <g id="matplotlib.axis_1">
    <g id="xtick_1">
     <g id="line2d_1">
      <defs>
       <path id="mc512b9050f" d="M 0 0 
L 0 3.5 
" style="stroke: #000000; stroke-width: 0.8"/>
      </defs>
      <g>
       <use xlink:href="#mc512b9050f" x="64.927692" y="245.715312" style="stroke: #000000; stroke-width: 0.8"/>
      </g>
     </g>
     <g id="text_1">
      <!-- 5 -->
      <g transform="translate(61.746442 260.312969) scale(0.1 -0.1)">
       <defs>
        <path id="DejaVuSans-18" d="M 691 4666 
L 3169 4666 
L 3169 4134 
L 1269 4134 
L 1269 2991 
Q 1406 3038 1543 3061 
Q 1681 3084 1819 3084 
Q 2600 3084 3056 2656 
Q 3513 2228 3513 1497 
Q 3513 744 3044 326 
Q 2575 -91 1722 -91 
Q 1428 -91 1123 -41 
Q 819 9 494 109 
L 494 744 
Q 775 591 1075 516 
Q 1375 441 1709 441 
Q 2250 441 2565 725 
Q 2881 1009 2881 1497 
Q 2881 1984 2565 2268 
Q 2250 2553 1709 2553 
Q 1456 2553 1204 2497 
Q 953 2441 691 2322 
L 691 4666 
z
" transform="scale(0.015625)"/>
       </defs>
       <use xlink:href="#DejaVuSans-18"/>
      </g>
     </g>
    </g>
    <g id="xtick_2">
     <g id="line2d_2">
      <g>
       <use xlink:href="#mc512b9050f" x="149.754432" y="245.715312" style="stroke: #000000; stroke-width: 0.8"/>
      </g>
     </g>
     <g id="text_2">
      <!-- 10 -->
      <g transform="translate(143.391932 260.312969) scale(0.1 -0.1)">
       <defs>
        <path id="DejaVuSans-14" d="M 794 531 
L 1825 531 
L 1825 4091 
L 703 3866 
L 703 4441 
L 1819 4666 
L 2450 4666 
L 2450 531 
L 3481 531 
L 3481 0 
L 794 0 
L 794 531 
z
" transform="scale(0.015625)"/>
        <path id="DejaVuSans-13" d="M 2034 4250 
Q 1547 4250 1301 3770 
Q 1056 3291 1056 2328 
Q 1056 1369 1301 889 
Q 1547 409 2034 409 
Q 2525 409 2770 889 
Q 3016 1369 3016 2328 
Q 3016 3291 2770 3770 
Q 2525 4250 2034 4250 
z
M 2034 4750 
Q 2819 4750 3233 4129 
Q 3647 3509 3647 2328 
Q 3647 1150 3233 529 
Q 2819 -91 2034 -91 
Q 1250 -91 836 529 
Q 422 1150 422 2328 
Q 422 3509 836 4129 
Q 1250 4750 2034 4750 
z
" transform="scale(0.015625)"/>
       </defs>
       <use xlink:href="#DejaVuSans-14"/>
       <use xlink:href="#DejaVuSans-13" transform="translate(63.625 0)"/>
      </g>
     </g>
    </g>
    <g id="xtick_3">
     <g id="line2d_3">
      <g>
       <use xlink:href="#mc512b9050f" x="234.581172" y="245.715312" style="stroke: #000000; stroke-width: 0.8"/>
      </g>
     </g>
     <g id="text_3">
      <!-- 20 -->
      <g transform="translate(228.218672 260.312969) scale(0.1 -0.1)">
       <defs>
        <path id="DejaVuSans-15" d="M 1228 531 
L 3431 531 
L 3431 0 
L 469 0 
L 469 531 
Q 828 903 1448 1529 
Q 2069 2156 2228 2338 
Q 2531 2678 2651 2914 
Q 2772 3150 2772 3378 
Q 2772 3750 2511 3984 
Q 2250 4219 1831 4219 
Q 1534 4219 1204 4116 
Q 875 4013 500 3803 
L 500 4441 
Q 881 4594 1212 4672 
Q 1544 4750 1819 4750 
Q 2544 4750 2975 4387 
Q 3406 4025 3406 3419 
Q 3406 3131 3298 2873 
Q 3191 2616 2906 2266 
Q 2828 2175 2409 1742 
Q 1991 1309 1228 531 
z
" transform="scale(0.015625)"/>
       </defs>
       <use xlink:href="#DejaVuSans-15"/>
       <use xlink:href="#DejaVuSans-13" transform="translate(63.625 0)"/>
      </g>
     </g>
    </g>
    <g id="xtick_4">
     <g id="line2d_4">
      <g>
       <use xlink:href="#mc512b9050f" x="319.407912" y="245.715312" style="stroke: #000000; stroke-width: 0.8"/>
      </g>
     </g>
     <g id="text_4">
      <!-- 40 -->
      <g transform="translate(313.045412 260.312969) scale(0.1 -0.1)">
       <defs>
        <path id="DejaVuSans-17" d="M 2419 4116 
L 825 1625 
L 2419 1625 
L 2419 4116 
z
M 2253 4666 
L 3047 4666 
L 3047 1625 
L 3713 1625 
L 3713 1100 
L 3047 1100 
L 3047 0 
L 2419 0 
L 2419 1100 
L 313 1100 
L 313 1709 
L 2253 4666 
z
" transform="scale(0.015625)"/>
       </defs>
       <use xlink:href="#DejaVuSans-17"/>
       <use xlink:href="#DejaVuSans-13" transform="translate(63.625 0)"/>
      </g>
     </g>
    </g>
    <g id="xtick_5">
     <g id="line2d_5">
      <g>
       <use xlink:href="#mc512b9050f" x="404.234652" y="245.715312" style="stroke: #000000; stroke-width: 0.8"/>
      </g>
     </g>
     <g id="text_5">
      <!-- 80 -->
      <g transform="translate(397.872152 260.312969) scale(0.1 -0.1)">
       <defs>
        <path id="DejaVuSans-1b" d="M 2034 2216 
Q 1584 2216 1326 1975 
Q 1069 1734 1069 1313 
Q 1069 891 1326 650 
Q 1584 409 2034 409 
Q 2484 409 2743 651 
Q 3003 894 3003 1313 
Q 3003 1734 2745 1975 
Q 2488 2216 2034 2216 
z
M 1403 2484 
Q 997 2584 770 2862 
Q 544 3141 544 3541 
Q 544 4100 942 4425 
Q 1341 4750 2034 4750 
Q 2731 4750 3128 4425 
Q 3525 4100 3525 3541 
Q 3525 3141 3298 2862 
Q 3072 2584 2669 2484 
Q 3125 2378 3379 2068 
Q 3634 1759 3634 1313 
Q 3634 634 3220 271 
Q 2806 -91 2034 -91 
Q 1263 -91 848 271 
Q 434 634 434 1313 
Q 434 1759 690 2068 
Q 947 2378 1403 2484 
z
M 1172 3481 
Q 1172 3119 1398 2916 
Q 1625 2713 2034 2713 
Q 2441 2713 2670 2916 
Q 2900 3119 2900 3481 
Q 2900 3844 2670 4047 
Q 2441 4250 2034 4250 
Q 1625 4250 1398 4047 
Q 1172 3844 1172 3481 
z
" transform="scale(0.015625)"/>
       </defs>
       <use xlink:href="#DejaVuSans-1b"/>
       <use xlink:href="#DejaVuSans-13" transform="translate(63.625 0)"/>
      </g>
     </g>
    </g>
    <g id="xtick_6">
     <g id="line2d_6">
      <defs>
       <path id="m14e5cbe887" d="M 0 0 
L 0 2 
" style="stroke: #000000; stroke-width: 0.6"/>
      </defs>
      <g>
       <use xlink:href="#m14e5cbe887" x="87.240043" y="245.715312" style="stroke: #000000; stroke-width: 0.6"/>
      </g>
     </g>
     <g id="text_6">
      <!-- $\mathdefault{6\times10^{0}}$ -->
      <g transform="translate(69.140043 260.515312) scale(0.1 -0.1)">
       <defs>
        <path id="DejaVuSans-19" d="M 2113 2584 
Q 1688 2584 1439 2293 
Q 1191 2003 1191 1497 
Q 1191 994 1439 701 
Q 1688 409 2113 409 
Q 2538 409 2786 701 
Q 3034 994 3034 1497 
Q 3034 2003 2786 2293 
Q 2538 2584 2113 2584 
z
M 3366 4563 
L 3366 3988 
Q 3128 4100 2886 4159 
Q 2644 4219 2406 4219 
Q 1781 4219 1451 3797 
Q 1122 3375 1075 2522 
Q 1259 2794 1537 2939 
Q 1816 3084 2150 3084 
Q 2853 3084 3261 2657 
Q 3669 2231 3669 1497 
Q 3669 778 3244 343 
Q 2819 -91 2113 -91 
Q 1303 -91 875 529 
Q 447 1150 447 2328 
Q 447 3434 972 4092 
Q 1497 4750 2381 4750 
Q 2619 4750 2861 4703 
Q 3103 4656 3366 4563 
z
" transform="scale(0.015625)"/>
        <path id="DejaVuSans-99" d="M 4488 3438 
L 3059 2003 
L 4488 575 
L 4116 197 
L 2681 1631 
L 1247 197 
L 878 575 
L 2303 2003 
L 878 3438 
L 1247 3816 
L 2681 2381 
L 4116 3816 
L 4488 3438 
z
" transform="scale(0.015625)"/>
       </defs>
       <use xlink:href="#DejaVuSans-19" transform="translate(0 0.746875)"/>
       <use xlink:href="#DejaVuSans-99" transform="translate(83.105469 0.746875)"/>
       <use xlink:href="#DejaVuSans-14" transform="translate(186.376953 0.746875)"/>
       <use xlink:href="#DejaVuSans-13" transform="translate(250 0.746875)"/>
       <use xlink:href="#DejaVuSans-13" transform="translate(314.580078 42.046875) scale(0.7)"/>
      </g>
     </g>
    </g>
    <g id="xtick_7">
     <g id="line2d_7">
      <g>
       <use xlink:href="#m14e5cbe887" x="106.104867" y="245.715312" style="stroke: #000000; stroke-width: 0.6"/>
      </g>
     </g>
    </g>
    <g id="xtick_8">
     <g id="line2d_8">
      <g>
       <use xlink:href="#m14e5cbe887" x="122.446321" y="245.715312" style="stroke: #000000; stroke-width: 0.6"/>
      </g>
     </g>
    </g>
    <g id="xtick_9">
     <g id="line2d_9">
      <g>
       <use xlink:href="#m14e5cbe887" x="136.860505" y="245.715312" style="stroke: #000000; stroke-width: 0.6"/>
      </g>
     </g>
    </g>
    <g id="xtick_10">
     <g id="line2d_10">
      <g>
       <use xlink:href="#m14e5cbe887" x="284.201634" y="245.715312" style="stroke: #000000; stroke-width: 0.6"/>
      </g>
     </g>
     <g id="text_7">
      <!-- $\mathdefault{3\times10^{1}}$ -->
      <g transform="translate(266.101634 260.415312) scale(0.1 -0.1)">
       <defs>
        <path id="DejaVuSans-16" d="M 2597 2516 
Q 3050 2419 3304 2112 
Q 3559 1806 3559 1356 
Q 3559 666 3084 287 
Q 2609 -91 1734 -91 
Q 1441 -91 1130 -33 
Q 819 25 488 141 
L 488 750 
Q 750 597 1062 519 
Q 1375 441 1716 441 
Q 2309 441 2620 675 
Q 2931 909 2931 1356 
Q 2931 1769 2642 2001 
Q 2353 2234 1838 2234 
L 1294 2234 
L 1294 2753 
L 1863 2753 
Q 2328 2753 2575 2939 
Q 2822 3125 2822 3475 
Q 2822 3834 2567 4026 
Q 2313 4219 1838 4219 
Q 1578 4219 1281 4162 
Q 984 4106 628 3988 
L 628 4550 
Q 988 4650 1302 4700 
Q 1616 4750 1894 4750 
Q 2613 4750 3031 4423 
Q 3450 4097 3450 3541 
Q 3450 3153 3228 2886 
Q 3006 2619 2597 2516 
z
" transform="scale(0.015625)"/>
       </defs>
       <use xlink:href="#DejaVuSans-16" transform="translate(0 0.665625)"/>
       <use xlink:href="#DejaVuSans-99" transform="translate(83.105469 0.665625)"/>
       <use xlink:href="#DejaVuSans-14" transform="translate(186.376953 0.665625)"/>
       <use xlink:href="#DejaVuSans-13" transform="translate(250 0.665625)"/>
       <use xlink:href="#DejaVuSans-14" transform="translate(314.580078 41.965625) scale(0.7)"/>
      </g>
     </g>
    </g>
    <g id="xtick_11">
     <g id="line2d_11">
      <g>
       <use xlink:href="#m14e5cbe887" x="346.716023" y="245.715312" style="stroke: #000000; stroke-width: 0.6"/>
      </g>
     </g>
    </g>
    <g id="xtick_12">
     <g id="line2d_12">
      <g>
       <use xlink:href="#m14e5cbe887" x="369.028374" y="245.715312" style="stroke: #000000; stroke-width: 0.6"/>
      </g>
     </g>
     <g id="text_8">
      <!-- $\mathdefault{6\times10^{1}}$ -->
      <g transform="translate(350.928374 260.415312) scale(0.1 -0.1)">
       <use xlink:href="#DejaVuSans-19" transform="translate(0 0.665625)"/>
       <use xlink:href="#DejaVuSans-99" transform="translate(83.105469 0.665625)"/>
       <use xlink:href="#DejaVuSans-14" transform="translate(186.376953 0.665625)"/>
       <use xlink:href="#DejaVuSans-13" transform="translate(250 0.665625)"/>
       <use xlink:href="#DejaVuSans-14" transform="translate(314.580078 41.965625) scale(0.7)"/>
      </g>
     </g>
    </g>
    <g id="xtick_13">
     <g id="line2d_13">
      <g>
       <use xlink:href="#m14e5cbe887" x="387.893198" y="245.715312" style="stroke: #000000; stroke-width: 0.6"/>
      </g>
     </g>
    </g>
    <g id="xtick_14">
     <g id="line2d_14">
      <g>
       <use xlink:href="#m14e5cbe887" x="418.648836" y="245.715312" style="stroke: #000000; stroke-width: 0.6"/>
      </g>
     </g>
    </g>
    <g id="text_9">
     <!-- plan horizon (steps) -->
     <g transform="translate(184.760078 274.516094) scale(0.1 -0.1)">
      <defs>
       <path id="DejaVuSans-53" d="M 1159 525 
L 1159 -1331 
L 581 -1331 
L 581 3500 
L 1159 3500 
L 1159 2969 
Q 1341 3281 1617 3432 
Q 1894 3584 2278 3584 
Q 2916 3584 3314 3078 
Q 3713 2572 3713 1747 
Q 3713 922 3314 415 
Q 2916 -91 2278 -91 
Q 1894 -91 1617 61 
Q 1341 213 1159 525 
z
M 3116 1747 
Q 3116 2381 2855 2742 
Q 2594 3103 2138 3103 
Q 1681 3103 1420 2742 
Q 1159 2381 1159 1747 
Q 1159 1113 1420 752 
Q 1681 391 2138 391 
Q 2594 391 2855 752 
Q 3116 1113 3116 1747 
z
" transform="scale(0.015625)"/>
       <path id="DejaVuSans-4f" d="M 603 4863 
L 1178 4863 
L 1178 0 
L 603 0 
L 603 4863 
z
" transform="scale(0.015625)"/>
       <path id="DejaVuSans-44" d="M 2194 1759 
Q 1497 1759 1228 1600 
Q 959 1441 959 1056 
Q 959 750 1161 570 
Q 1363 391 1709 391 
Q 2188 391 2477 730 
Q 2766 1069 2766 1631 
L 2766 1759 
L 2194 1759 
z
M 3341 1997 
L 3341 0 
L 2766 0 
L 2766 531 
Q 2569 213 2275 61 
Q 1981 -91 1556 -91 
Q 1019 -91 701 211 
Q 384 513 384 1019 
Q 384 1609 779 1909 
Q 1175 2209 1959 2209 
L 2766 2209 
L 2766 2266 
Q 2766 2663 2505 2880 
Q 2244 3097 1772 3097 
Q 1472 3097 1187 3025 
Q 903 2953 641 2809 
L 641 3341 
Q 956 3463 1253 3523 
Q 1550 3584 1831 3584 
Q 2591 3584 2966 3190 
Q 3341 2797 3341 1997 
z
" transform="scale(0.015625)"/>
       <path id="DejaVuSans-51" d="M 3513 2113 
L 3513 0 
L 2938 0 
L 2938 2094 
Q 2938 2591 2744 2837 
Q 2550 3084 2163 3084 
Q 1697 3084 1428 2787 
Q 1159 2491 1159 1978 
L 1159 0 
L 581 0 
L 581 3500 
L 1159 3500 
L 1159 2956 
Q 1366 3272 1645 3428 
Q 1925 3584 2291 3584 
Q 2894 3584 3203 3211 
Q 3513 2838 3513 2113 
z
" transform="scale(0.015625)"/>
       <path id="DejaVuSans-3" transform="scale(0.015625)"/>
       <path id="DejaVuSans-4b" d="M 3513 2113 
L 3513 0 
L 2938 0 
L 2938 2094 
Q 2938 2591 2744 2837 
Q 2550 3084 2163 3084 
Q 1697 3084 1428 2787 
Q 1159 2491 1159 1978 
L 1159 0 
L 581 0 
L 581 4863 
L 1159 4863 
L 1159 2956 
Q 1366 3272 1645 3428 
Q 1925 3584 2291 3584 
Q 2894 3584 3203 3211 
Q 3513 2838 3513 2113 
z
" transform="scale(0.015625)"/>
       <path id="DejaVuSans-52" d="M 1959 3097 
Q 1497 3097 1228 2736 
Q 959 2375 959 1747 
Q 959 1119 1226 758 
Q 1494 397 1959 397 
Q 2419 397 2687 759 
Q 2956 1122 2956 1747 
Q 2956 2369 2687 2733 
Q 2419 3097 1959 3097 
z
M 1959 3584 
Q 2709 3584 3137 3096 
Q 3566 2609 3566 1747 
Q 3566 888 3137 398 
Q 2709 -91 1959 -91 
Q 1206 -91 779 398 
Q 353 888 353 1747 
Q 353 2609 779 3096 
Q 1206 3584 1959 3584 
z
" transform="scale(0.015625)"/>
       <path id="DejaVuSans-55" d="M 2631 2963 
Q 2534 3019 2420 3045 
Q 2306 3072 2169 3072 
Q 1681 3072 1420 2755 
Q 1159 2438 1159 1844 
L 1159 0 
L 581 0 
L 581 3500 
L 1159 3500 
L 1159 2956 
Q 1341 3275 1631 3429 
Q 1922 3584 2338 3584 
Q 2397 3584 2469 3576 
Q 2541 3569 2628 3553 
L 2631 2963 
z
" transform="scale(0.015625)"/>
       <path id="DejaVuSans-4c" d="M 603 3500 
L 1178 3500 
L 1178 0 
L 603 0 
L 603 3500 
z
M 603 4863 
L 1178 4863 
L 1178 4134 
L 603 4134 
L 603 4863 
z
" transform="scale(0.015625)"/>
       <path id="DejaVuSans-5d" d="M 353 3500 
L 3084 3500 
L 3084 2975 
L 922 459 
L 3084 459 
L 3084 0 
L 275 0 
L 275 525 
L 2438 3041 
L 353 3041 
L 353 3500 
z
" transform="scale(0.015625)"/>
       <path id="DejaVuSans-b" d="M 1984 4856 
Q 1566 4138 1362 3434 
Q 1159 2731 1159 2009 
Q 1159 1288 1364 580 
Q 1569 -128 1984 -844 
L 1484 -844 
Q 1016 -109 783 600 
Q 550 1309 550 2009 
Q 550 2706 781 3412 
Q 1013 4119 1484 4856 
L 1984 4856 
z
" transform="scale(0.015625)"/>
       <path id="DejaVuSans-56" d="M 2834 3397 
L 2834 2853 
Q 2591 2978 2328 3040 
Q 2066 3103 1784 3103 
Q 1356 3103 1142 2972 
Q 928 2841 928 2578 
Q 928 2378 1081 2264 
Q 1234 2150 1697 2047 
L 1894 2003 
Q 2506 1872 2764 1633 
Q 3022 1394 3022 966 
Q 3022 478 2636 193 
Q 2250 -91 1575 -91 
Q 1294 -91 989 -36 
Q 684 19 347 128 
L 347 722 
Q 666 556 975 473 
Q 1284 391 1588 391 
Q 1994 391 2212 530 
Q 2431 669 2431 922 
Q 2431 1156 2273 1281 
Q 2116 1406 1581 1522 
L 1381 1569 
Q 847 1681 609 1914 
Q 372 2147 372 2553 
Q 372 3047 722 3315 
Q 1072 3584 1716 3584 
Q 2034 3584 2315 3537 
Q 2597 3491 2834 3397 
z
" transform="scale(0.015625)"/>
       <path id="DejaVuSans-57" d="M 1172 4494 
L 1172 3500 
L 2356 3500 
L 2356 3053 
L 1172 3053 
L 1172 1153 
Q 1172 725 1289 603 
Q 1406 481 1766 481 
L 2356 481 
L 2356 0 
L 1766 0 
Q 1100 0 847 248 
Q 594 497 594 1153 
L 594 3053 
L 172 3053 
L 172 3500 
L 594 3500 
L 594 4494 
L 1172 4494 
z
" transform="scale(0.015625)"/>
       <path id="DejaVuSans-48" d="M 3597 1894 
L 3597 1613 
L 953 1613 
Q 991 1019 1311 708 
Q 1631 397 2203 397 
Q 2534 397 2845 478 
Q 3156 559 3463 722 
L 3463 178 
Q 3153 47 2828 -22 
Q 2503 -91 2169 -91 
Q 1331 -91 842 396 
Q 353 884 353 1716 
Q 353 2575 817 3079 
Q 1281 3584 2069 3584 
Q 2775 3584 3186 3129 
Q 3597 2675 3597 1894 
z
M 3022 2063 
Q 3016 2534 2758 2815 
Q 2500 3097 2075 3097 
Q 1594 3097 1305 2825 
Q 1016 2553 972 2059 
L 3022 2063 
z
" transform="scale(0.015625)"/>
       <path id="DejaVuSans-c" d="M 513 4856 
L 1013 4856 
Q 1481 4119 1714 3412 
Q 1947 2706 1947 2009 
Q 1947 1309 1714 600 
Q 1481 -109 1013 -844 
L 513 -844 
Q 928 -128 1133 580 
Q 1338 1288 1338 2009 
Q 1338 2731 1133 3434 
Q 928 4138 513 4856 
z
" transform="scale(0.015625)"/>
      </defs>
      <use xlink:href="#DejaVuSans-53"/>
      <use xlink:href="#DejaVuSans-4f" transform="translate(63.484375 0)"/>
      <use xlink:href="#DejaVuSans-44" transform="translate(91.265625 0)"/>
      <use xlink:href="#DejaVuSans-51" transform="translate(152.546875 0)"/>
      <use xlink:href="#DejaVuSans-3" transform="translate(215.921875 0)"/>
      <use xlink:href="#DejaVuSans-4b" transform="translate(247.703125 0)"/>
      <use xlink:href="#DejaVuSans-52" transform="translate(311.078125 0)"/>
      <use xlink:href="#DejaVuSans-55" transform="translate(372.265625 0)"/>
      <use xlink:href="#DejaVuSans-4c" transform="translate(413.375 0)"/>
      <use xlink:href="#DejaVuSans-5d" transform="translate(441.15625 0)"/>
      <use xlink:href="#DejaVuSans-52" transform="translate(493.640625 0)"/>
      <use xlink:href="#DejaVuSans-51" transform="translate(554.828125 0)"/>
      <use xlink:href="#DejaVuSans-3" transform="translate(618.203125 0)"/>
      <use xlink:href="#DejaVuSans-b" transform="translate(649.984375 0)"/>
      <use xlink:href="#DejaVuSans-56" transform="translate(689 0)"/>
      <use xlink:href="#DejaVuSans-57" transform="translate(741.09375 0)"/>
      <use xlink:href="#DejaVuSans-48" transform="translate(780.296875 0)"/>
      <use xlink:href="#DejaVuSans-53" transform="translate(841.828125 0)"/>
      <use xlink:href="#DejaVuSans-56" transform="translate(905.3125 0)"/>
      <use xlink:href="#DejaVuSans-c" transform="translate(957.40625 0)"/>
     </g>
    </g>
   </g>
   <g id="matplotlib.axis_2">
    <g id="ytick_1">
     <g id="line2d_15">
      <defs>
       <path id="md4d237d1ee" d="M 0 0 
L -3.5 0 
" style="stroke: #000000; stroke-width: 0.8"/>
      </defs>
      <g>
       <use xlink:href="#md4d237d1ee" x="47.962344" y="235.735526" style="stroke: #000000; stroke-width: 0.8"/>
      </g>
     </g>
     <g id="text_10">
      <!-- 0.0 -->
      <g transform="translate(25.059219 239.534354) scale(0.1 -0.1)">
       <defs>
        <path id="DejaVuSans-11" d="M 684 794 
L 1344 794 
L 1344 0 
L 684 0 
L 684 794 
z
" transform="scale(0.015625)"/>
       </defs>
       <use xlink:href="#DejaVuSans-13"/>
       <use xlink:href="#DejaVuSans-11" transform="translate(63.625 0)"/>
       <use xlink:href="#DejaVuSans-13" transform="translate(95.40625 0)"/>
      </g>
     </g>
    </g>
    <g id="ytick_2">
     <g id="line2d_16">
      <g>
       <use xlink:href="#md4d237d1ee" x="47.962344" y="195.816378" style="stroke: #000000; stroke-width: 0.8"/>
      </g>
     </g>
     <g id="text_11">
      <!-- 0.2 -->
      <g transform="translate(25.059219 199.615206) scale(0.1 -0.1)">
       <use xlink:href="#DejaVuSans-13"/>
       <use xlink:href="#DejaVuSans-11" transform="translate(63.625 0)"/>
       <use xlink:href="#DejaVuSans-15" transform="translate(95.40625 0)"/>
      </g>
     </g>
    </g>
    <g id="ytick_3">
     <g id="line2d_17">
      <g>
       <use xlink:href="#md4d237d1ee" x="47.962344" y="155.89723" style="stroke: #000000; stroke-width: 0.8"/>
      </g>
     </g>
     <g id="text_12">
      <!-- 0.4 -->
      <g transform="translate(25.059219 159.696058) scale(0.1 -0.1)">
       <use xlink:href="#DejaVuSans-13"/>
       <use xlink:href="#DejaVuSans-11" transform="translate(63.625 0)"/>
       <use xlink:href="#DejaVuSans-17" transform="translate(95.40625 0)"/>
      </g>
     </g>
    </g>
    <g id="ytick_4">
     <g id="line2d_18">
      <g>
       <use xlink:href="#md4d237d1ee" x="47.962344" y="115.978082" style="stroke: #000000; stroke-width: 0.8"/>
      </g>
     </g>
     <g id="text_13">
      <!-- 0.6 -->
      <g transform="translate(25.059219 119.776911) scale(0.1 -0.1)">
       <use xlink:href="#DejaVuSans-13"/>
       <use xlink:href="#DejaVuSans-11" transform="translate(63.625 0)"/>
       <use xlink:href="#DejaVuSans-19" transform="translate(95.40625 0)"/>
      </g>
     </g>
    </g>
    <g id="ytick_5">
     <g id="line2d_19">
      <g>
       <use xlink:href="#md4d237d1ee" x="47.962344" y="76.058935" style="stroke: #000000; stroke-width: 0.8"/>
      </g>
     </g>
     <g id="text_14">
      <!-- 0.8 -->
      <g transform="translate(25.059219 79.857763) scale(0.1 -0.1)">
       <use xlink:href="#DejaVuSans-13"/>
       <use xlink:href="#DejaVuSans-11" transform="translate(63.625 0)"/>
       <use xlink:href="#DejaVuSans-1b" transform="translate(95.40625 0)"/>
      </g>
     </g>
    </g>
    <g id="ytick_6">
     <g id="line2d_20">
      <g>
       <use xlink:href="#md4d237d1ee" x="47.962344" y="36.139787" style="stroke: #000000; stroke-width: 0.8"/>
      </g>
     </g>
     <g id="text_15">
      <!-- 1.0 -->
      <g transform="translate(25.059219 39.938615) scale(0.1 -0.1)">
       <use xlink:href="#DejaVuSans-14"/>
       <use xlink:href="#DejaVuSans-11" transform="translate(63.625 0)"/>
       <use xlink:href="#DejaVuSans-13" transform="translate(95.40625 0)"/>
      </g>
     </g>
    </g>
    <g id="text_16">
     <!-- recall -->
     <g transform="translate(18.656875 149.550937) rotate(-90) scale(0.1 -0.1)">
      <defs>
       <path id="DejaVuSans-46" d="M 3122 3366 
L 3122 2828 
Q 2878 2963 2633 3030 
Q 2388 3097 2138 3097 
Q 1578 3097 1268 2742 
Q 959 2388 959 1747 
Q 959 1106 1268 751 
Q 1578 397 2138 397 
Q 2388 397 2633 464 
Q 2878 531 3122 666 
L 3122 134 
Q 2881 22 2623 -34 
Q 2366 -91 2075 -91 
Q 1284 -91 818 406 
Q 353 903 353 1747 
Q 353 2603 823 3093 
Q 1294 3584 2113 3584 
Q 2378 3584 2631 3529 
Q 2884 3475 3122 3366 
z
" transform="scale(0.015625)"/>
      </defs>
      <use xlink:href="#DejaVuSans-55"/>
      <use xlink:href="#DejaVuSans-48" transform="translate(38.90625 0)"/>
      <use xlink:href="#DejaVuSans-46" transform="translate(100.4375 0)"/>
      <use xlink:href="#DejaVuSans-44" transform="translate(155.421875 0)"/>
      <use xlink:href="#DejaVuSans-4f" transform="translate(216.703125 0)"/>
      <use xlink:href="#DejaVuSans-4f" transform="translate(244.484375 0)"/>
     </g>
    </g>
   </g>
   <g id="line2d_21">
    <path d="M 64.927692 36.139787 
L 149.754432 36.139787 
L 234.581172 36.139787 
L 319.407912 36.139787 
L 404.234652 36.139787 
" clip-path="url(#p7e211b6b8c)" style="fill: none; stroke: #1f77b4; stroke-width: 1.5; stroke-linecap: square"/>
    <defs>
     <path id="m0e0d811321" d="M 0 3 
C 0.795609 3 1.55874 2.683901 2.12132 2.12132 
C 2.683901 1.55874 3 0.795609 3 0 
C 3 -0.795609 2.683901 -1.55874 2.12132 -2.12132 
C 1.55874 -2.683901 0.795609 -3 0 -3 
C -0.795609 -3 -1.55874 -2.683901 -2.12132 -2.12132 
C -2.683901 -1.55874 -3 -0.795609 -3 0 
C -3 0.795609 -2.683901 1.55874 -2.12132 2.12132 
C -1.55874 2.683901 -0.795609 3 0 3 
z
" style="stroke: #1f77b4"/>
    </defs>
    <g clip-path="url(#p7e211b6b8c)">
     <use xlink:href="#m0e0d811321" x="64.927692" y="36.139787" style="fill: #1f77b4; stroke: #1f77b4"/>
     <use xlink:href="#m0e0d811321" x="149.754432" y="36.139787" style="fill: #1f77b4; stroke: #1f77b4"/>
     <use xlink:href="#m0e0d811321" x="234.581172" y="36.139787" style="fill: #1f77b4; stroke: #1f77b4"/>
     <use xlink:href="#m0e0d811321" x="319.407912" y="36.139787" style="fill: #1f77b4; stroke: #1f77b4"/>
     <use xlink:href="#m0e0d811321" x="404.234652" y="36.139787" style="fill: #1f77b4; stroke: #1f77b4"/>
    </g>
   </g>
   <g id="line2d_22">
    <path d="M 64.927692 36.139787 
L 149.754432 36.139787 
L 234.581172 36.139787 
L 319.407912 36.139787 
L 404.234652 36.139787 
" clip-path="url(#p7e211b6b8c)" style="fill: none; stroke: #ff7f0e; stroke-width: 1.5; stroke-linecap: square"/>
    <defs>
     <path id="m6c4df378f5" d="M 0 3 
C 0.795609 3 1.55874 2.683901 2.12132 2.12132 
C 2.683901 1.55874 3 0.795609 3 0 
C 3 -0.795609 2.683901 -1.55874 2.12132 -2.12132 
C 1.55874 -2.683901 0.795609 -3 0 -3 
C -0.795609 -3 -1.55874 -2.683901 -2.12132 -2.12132 
C -2.683901 -1.55874 -3 -0.795609 -3 0 
C -3 0.795609 -2.683901 1.55874 -2.12132 2.12132 
C -1.55874 2.683901 -0.795609 3 0 3 
z
" style="stroke: #ff7f0e"/>
    </defs>
    <g clip-path="url(#p7e211b6b8c)">
     <use xlink:href="#m6c4df378f5" x="64.927692" y="36.139787" style="fill: #ff7f0e; stroke: #ff7f0e"/>
     <use xlink:href="#m6c4df378f5" x="149.754432" y="36.139787" style="fill: #ff7f0e; stroke: #ff7f0e"/>
     <use xlink:href="#m6c4df378f5" x="234.581172" y="36.139787" style="fill: #ff7f0e; stroke: #ff7f0e"/>
     <use xlink:href="#m6c4df378f5" x="319.407912" y="36.139787" style="fill: #ff7f0e; stroke: #ff7f0e"/>
     <use xlink:href="#m6c4df378f5" x="404.234652" y="36.139787" style="fill: #ff7f0e; stroke: #ff7f0e"/>
    </g>
   </g>
   <g id="line2d_23">
    <path d="M 64.927692 36.139787 
L 149.754432 48.913914 
L 234.581172 53.30502 
L 319.407912 59.692084 
L 404.234652 67.675914 
" clip-path="url(#p7e211b6b8c)" style="fill: none; stroke: #2ca02c; stroke-width: 1.5; stroke-linecap: square"/>
    <defs>
     <path id="md1f0756088" d="M 0 3 
C 0.795609 3 1.55874 2.683901 2.12132 2.12132 
C 2.683901 1.55874 3 0.795609 3 0 
C 3 -0.795609 2.683901 -1.55874 2.12132 -2.12132 
C 1.55874 -2.683901 0.795609 -3 0 -3 
C -0.795609 -3 -1.55874 -2.683901 -2.12132 -2.12132 
C -2.683901 -1.55874 -3 -0.795609 -3 0 
C -3 0.795609 -2.683901 1.55874 -2.12132 2.12132 
C -1.55874 2.683901 -0.795609 3 0 3 
z
" style="stroke: #2ca02c"/>
    </defs>
    <g clip-path="url(#p7e211b6b8c)">
     <use xlink:href="#md1f0756088" x="64.927692" y="36.139787" style="fill: #2ca02c; stroke: #2ca02c"/>
     <use xlink:href="#md1f0756088" x="149.754432" y="48.913914" style="fill: #2ca02c; stroke: #2ca02c"/>
     <use xlink:href="#md1f0756088" x="234.581172" y="53.30502" style="fill: #2ca02c; stroke: #2ca02c"/>
     <use xlink:href="#md1f0756088" x="319.407912" y="59.692084" style="fill: #2ca02c; stroke: #2ca02c"/>
     <use xlink:href="#md1f0756088" x="404.234652" y="67.675914" style="fill: #2ca02c; stroke: #2ca02c"/>
    </g>
   </g>
   <g id="line2d_24">
    <path d="M 64.927692 36.139787 
L 149.754432 51.508659 
L 234.581172 45.720382 
L 319.407912 50.710276 
L 404.234652 59.492488 
" clip-path="url(#p7e211b6b8c)" style="fill: none; stroke: #d62728; stroke-width: 1.5; stroke-linecap: square"/>
    <defs>
     <path id="m4c90f258d4" d="M 0 3 
C 0.795609 3 1.55874 2.683901 2.12132 2.12132 
C 2.683901 1.55874 3 0.795609 3 0 
C 3 -0.795609 2.683901 -1.55874 2.12132 -2.12132 
C 1.55874 -2.683901 0.795609 -3 0 -3 
C -0.795609 -3 -1.55874 -2.683901 -2.12132 -2.12132 
C -2.683901 -1.55874 -3 -0.795609 -3 0 
C -3 0.795609 -2.683901 1.55874 -2.12132 2.12132 
C -1.55874 2.683901 -0.795609 3 0 3 
z
" style="stroke: #d62728"/>
    </defs>
    <g clip-path="url(#p7e211b6b8c)">
     <use xlink:href="#m4c90f258d4" x="64.927692" y="36.139787" style="fill: #d62728; stroke: #d62728"/>
     <use xlink:href="#m4c90f258d4" x="149.754432" y="51.508659" style="fill: #d62728; stroke: #d62728"/>
     <use xlink:href="#m4c90f258d4" x="234.581172" y="45.720382" style="fill: #d62728; stroke: #d62728"/>
     <use xlink:href="#m4c90f258d4" x="319.407912" y="50.710276" style="fill: #d62728; stroke: #d62728"/>
     <use xlink:href="#m4c90f258d4" x="404.234652" y="59.492488" style="fill: #d62728; stroke: #d62728"/>
    </g>
   </g>
   <g id="line2d_25">
    <path d="M 64.927692 36.139787 
L 149.754432 41.329276 
L 234.581172 74.062977 
L 319.407912 65.081169 
L 404.234652 66.079148 
" clip-path="url(#p7e211b6b8c)" style="fill: none; stroke: #9467bd; stroke-width: 1.5; stroke-linecap: square"/>
    <defs>
     <path id="m51176eed8c" d="M 0 3 
C 0.795609 3 1.55874 2.683901 2.12132 2.12132 
C 2.683901 1.55874 3 0.795609 3 0 
C 3 -0.795609 2.683901 -1.55874 2.12132 -2.12132 
C 1.55874 -2.683901 0.795609 -3 0 -3 
C -0.795609 -3 -1.55874 -2.683901 -2.12132 -2.12132 
C -2.683901 -1.55874 -3 -0.795609 -3 0 
C -3 0.795609 -2.683901 1.55874 -2.12132 2.12132 
C -1.55874 2.683901 -0.795609 3 0 3 
z
" style="stroke: #9467bd"/>
    </defs>
    <g clip-path="url(#p7e211b6b8c)">
     <use xlink:href="#m51176eed8c" x="64.927692" y="36.139787" style="fill: #9467bd; stroke: #9467bd"/>
     <use xlink:href="#m51176eed8c" x="149.754432" y="41.329276" style="fill: #9467bd; stroke: #9467bd"/>
     <use xlink:href="#m51176eed8c" x="234.581172" y="74.062977" style="fill: #9467bd; stroke: #9467bd"/>
     <use xlink:href="#m51176eed8c" x="319.407912" y="65.081169" style="fill: #9467bd; stroke: #9467bd"/>
     <use xlink:href="#m51176eed8c" x="404.234652" y="66.079148" style="fill: #9467bd; stroke: #9467bd"/>
    </g>
   </g>
   <g id="patch_3">
    <path d="M 47.962344 245.715312 
L 47.962344 26.16 
" style="fill: none; stroke: #000000; stroke-width: 0.8; stroke-linejoin: miter; stroke-linecap: square"/>
   </g>
   <g id="patch_4">
    <path d="M 421.2 245.715312 
L 421.2 26.16 
" style="fill: none; stroke: #000000; stroke-width: 0.8; stroke-linejoin: miter; stroke-linecap: square"/>
   </g>
   <g id="patch_5">
    <path d="M 47.962344 245.715312 
L 421.2 245.715312 
" style="fill: none; stroke: #000000; stroke-width: 0.8; stroke-linejoin: miter; stroke-linecap: square"/>
   </g>
   <g id="patch_6">
    <path d="M 47.962344 26.16 
L 421.2 26.16 
" style="fill: none; stroke: #000000; stroke-width: 0.8; stroke-linejoin: miter; stroke-linecap: square"/>
   </g>
   <g id="text_17">
    <!-- Flaw detection recall vs plan horizon (pooled) -->
    <g transform="translate(97.902109 20.16) scale(0.12 -0.12)">
     <defs>
      <path id="DejaVuSans-29" d="M 628 4666 
L 3309 4666 
L 3309 4134 
L 1259 4134 
L 1259 2759 
L 3109 2759 
L 3109 2228 
L 1259 2228 
L 1259 0 
L 628 0 
L 628 4666 
z
" transform="scale(0.015625)"/>
      <path id="DejaVuSans-5a" d="M 269 3500 
L 844 3500 
L 1563 769 
L 2278 3500 
L 2956 3500 
L 3675 769 
L 4391 3500 
L 4966 3500 
L 4050 0 
L 3372 0 
L 2619 2869 
L 1863 0 
L 1184 0 
L 269 3500 
z
" transform="scale(0.015625)"/>
      <path id="DejaVuSans-47" d="M 2906 2969 
L 2906 4863 
L 3481 4863 
L 3481 0 
L 2906 0 
L 2906 525 
Q 2725 213 2448 61 
Q 2172 -91 1784 -91 
Q 1150 -91 751 415 
Q 353 922 353 1747 
Q 353 2572 751 3078 
Q 1150 3584 1784 3584 
Q 2172 3584 2448 3432 
Q 2725 3281 2906 2969 
z
M 947 1747 
Q 947 1113 1208 752 
Q 1469 391 1925 391 
Q 2381 391 2643 752 
Q 2906 1113 2906 1747 
Q 2906 2381 2643 2742 
Q 2381 3103 1925 3103 
Q 1469 3103 1208 2742 
Q 947 2381 947 1747 
z
" transform="scale(0.015625)"/>
      <path id="DejaVuSans-59" d="M 191 3500 
L 800 3500 
L 1894 563 
L 2988 3500 
L 3597 3500 
L 2284 0 
L 1503 0 
L 191 3500 
z
" transform="scale(0.015625)"/>
     </defs>
     <use xlink:href="#DejaVuSans-29"/>
     <use xlink:href="#DejaVuSans-4f" transform="translate(57.515625 0)"/>
     <use xlink:href="#DejaVuSans-44" transform="translate(85.296875 0)"/>
     <use xlink:href="#DejaVuSans-5a" transform="translate(146.578125 0)"/>
     <use xlink:href="#DejaVuSans-3" transform="translate(228.359375 0)"/>
     <use xlink:href="#DejaVuSans-47" transform="translate(260.140625 0)"/>
     <use xlink:href="#DejaVuSans-48" transform="translate(323.625 0)"/>
     <use xlink:href="#DejaVuSans-57" transform="translate(385.15625 0)"/>
     <use xlink:href="#DejaVuSans-48" transform="translate(424.359375 0)"/>
     <use xlink:href="#DejaVuSans-46" transform="translate(485.890625 0)"/>
     <use xlink:href="#DejaVuSans-57" transform="translate(540.875 0)"/>
     <use xlink:href="#DejaVuSans-4c" transform="translate(580.078125 0)"/>
     <use xlink:href="#DejaVuSans-52" transform="translate(607.859375 0)"/>
     <use xlink:href="#DejaVuSans-51" transform="translate(669.046875 0)"/>
     <use xlink:href="#DejaVuSans-3" transform="translate(732.421875 0)"/>
     <use xlink:href="#DejaVuSans-55" transform="translate(764.203125 0)"/>
     <use xlink:href="#DejaVuSans-48" transform="translate(803.109375 0)"/>
     <use xlink:href="#DejaVuSans-46" transform="translate(864.640625 0)"/>
     <use xlink:href="#DejaVuSans-44" transform="translate(919.625 0)"/>
     <use xlink:href="#DejaVuSans-4f" transform="translate(980.90625 0)"/>
     <use xlink:href="#DejaVuSans-4f" transform="translate(1008.6875 0)"/>
     <use xlink:href="#DejaVuSans-3" transform="translate(1036.46875 0)"/>
     <use xlink:href="#DejaVuSans-59" transform="translate(1068.25 0)"/>
     <use xlink:href="#DejaVuSans-56" transform="translate(1127.4375 0)"/>
     <use xlink:href="#DejaVuSans-3" transform="translate(1179.53125 0)"/>
     <use xlink:href="#DejaVuSans-53" transform="translate(1211.3125 0)"/>
     <use xlink:href="#DejaVuSans-4f" transform="translate(1274.796875 0)"/>
     <use xlink:href="#DejaVuSans-44" transform="translate(1302.578125 0)"/>
     <use xlink:href="#DejaVuSans-51" transform="translate(1363.859375 0)"/>
     <use xlink:href="#DejaVuSans-3" transform="translate(1427.234375 0)"/>
     <use xlink:href="#DejaVuSans-4b" transform="translate(1459.015625 0)"/>
     <use xlink:href="#DejaVuSans-52" transform="translate(1522.390625 0)"/>
     <use xlink:href="#DejaVuSans-55" transform="translate(1583.578125 0)"/>
     <use xlink:href="#DejaVuSans-4c" transform="translate(1624.6875 0)"/>
     <use xlink:href="#DejaVuSans-5d" transform="translate(1652.46875 0)"/>
     <use xlink:href="#DejaVuSans-52" transform="translate(1704.953125 0)"/>
     <use xlink:href="#DejaVuSans-51" transform="translate(1766.140625 0)"/>
     <use xlink:href="#DejaVuSans-3" transform="translate(1829.515625 0)"/>
     <use xlink:href="#DejaVuSans-b" transform="translate(1861.296875 0)"/>
     <use xlink:href="#DejaVuSans-53" transform="translate(1900.3125 0)"/>
     <use xlink:href="#DejaVuSans-52" transform="translate(1963.796875 0)"/>
     <use xlink:href="#DejaVuSans-52" transform="translate(2024.984375 0)"/>
     <use xlink:href="#DejaVuSans-4f" transform="translate(2086.171875 0)"/>
     <use xlink:href="#DejaVuSans-48" transform="translate(2113.953125 0)"/>
     <use xlink:href="#DejaVuSans-47" transform="translate(2175.484375 0)"/>
     <use xlink:href="#DejaVuSans-c" transform="translate(2238.96875 0)"/>
    </g>
   </g>
   <g id="legend_1">
    <g id="patch_7">
     <path d="M 53.562344 241.715312 
L 159.242344 241.715312 
Q 160.842344 241.715312 160.842344 240.115312 
L 160.842344 180.912187 
Q 160.842344 179.312187 159.242344 179.312187 
L 53.562344 179.312187 
Q 51.962344 179.312187 51.962344 180.912187 
L 51.962344 240.115312 
Q 51.962344 241.715312 53.562344 241.715312 
z
" style="fill: #ffffff; opacity: 0.8; stroke: #cccccc; stroke-linejoin: miter"/>
    </g>
    <g id="line2d_26">
     <path d="M 55.162344 185.790937 
L 63.162344 185.790937 
L 71.162344 185.790937 
" style="fill: none; stroke: #1f77b4; stroke-width: 1.5; stroke-linecap: square"/>
     <g>
      <use xlink:href="#m0e0d811321" x="63.162344" y="185.790937" style="fill: #1f77b4; stroke: #1f77b4"/>
     </g>
    </g>
    <g id="text_18">
     <!-- hybrid -->
     <g transform="translate(77.562344 188.590937) scale(0.08 -0.08)">
      <defs>
       <path id="DejaVuSans-5c" d="M 2059 -325 
Q 1816 -950 1584 -1140 
Q 1353 -1331 966 -1331 
L 506 -1331 
L 506 -850 
L 844 -850 
Q 1081 -850 1212 -737 
Q 1344 -625 1503 -206 
L 1606 56 
L 191 3500 
L 800 3500 
L 1894 763 
L 2988 3500 
L 3597 3500 
L 2059 -325 
z
" transform="scale(0.015625)"/>
       <path id="DejaVuSans-45" d="M 3116 1747 
Q 3116 2381 2855 2742 
Q 2594 3103 2138 3103 
Q 1681 3103 1420 2742 
Q 1159 2381 1159 1747 
Q 1159 1113 1420 752 
Q 1681 391 2138 391 
Q 2594 391 2855 752 
Q 3116 1113 3116 1747 
z
M 1159 2969 
Q 1341 3281 1617 3432 
Q 1894 3584 2278 3584 
Q 2916 3584 3314 3078 
Q 3713 2572 3713 1747 
Q 3713 922 3314 415 
Q 2916 -91 2278 -91 
Q 1894 -91 1617 61 
Q 1341 213 1159 525 
L 1159 0 
L 581 0 
L 581 4863 
L 1159 4863 
L 1159 2969 
z
" transform="scale(0.015625)"/>
      </defs>
      <use xlink:href="#DejaVuSans-4b"/>
      <use xlink:href="#DejaVuSans-5c" transform="translate(63.375 0)"/>
      <use xlink:href="#DejaVuSans-45" transform="translate(122.5625 0)"/>
      <use xlink:href="#DejaVuSans-55" transform="translate(186.046875 0)"/>
      <use xlink:href="#DejaVuSans-4c" transform="translate(227.15625 0)"/>
      <use xlink:href="#DejaVuSans-47" transform="translate(254.9375 0)"/>
     </g>
    </g>
    <g id="line2d_27">
     <path d="M 55.162344 197.791562 
L 63.162344 197.791562 
L 71.162344 197.791562 
" style="fill: none; stroke: #ff7f0e; stroke-width: 1.5; stroke-linecap: square"/>
     <g>
      <use xlink:href="#m6c4df378f5" x="63.162344" y="197.791562" style="fill: #ff7f0e; stroke: #ff7f0e"/>
     </g>
    </g>
    <g id="text_19">
     <!-- symbolic_extraction -->
     <g transform="translate(77.562344 200.591562) scale(0.08 -0.08)">
      <defs>
       <path id="DejaVuSans-50" d="M 3328 2828 
Q 3544 3216 3844 3400 
Q 4144 3584 4550 3584 
Q 5097 3584 5394 3201 
Q 5691 2819 5691 2113 
L 5691 0 
L 5113 0 
L 5113 2094 
Q 5113 2597 4934 2840 
Q 4756 3084 4391 3084 
Q 3944 3084 3684 2787 
Q 3425 2491 3425 1978 
L 3425 0 
L 2847 0 
L 2847 2094 
Q 2847 2600 2669 2842 
Q 2491 3084 2119 3084 
Q 1678 3084 1418 2786 
Q 1159 2488 1159 1978 
L 1159 0 
L 581 0 
L 581 3500 
L 1159 3500 
L 1159 2956 
Q 1356 3278 1631 3431 
Q 1906 3584 2284 3584 
Q 2666 3584 2933 3390 
Q 3200 3197 3328 2828 
z
" transform="scale(0.015625)"/>
       <path id="DejaVuSans-42" d="M 3263 -1063 
L 3263 -1509 
L -63 -1509 
L -63 -1063 
L 3263 -1063 
z
" transform="scale(0.015625)"/>
       <path id="DejaVuSans-5b" d="M 3513 3500 
L 2247 1797 
L 3578 0 
L 2900 0 
L 1881 1375 
L 863 0 
L 184 0 
L 1544 1831 
L 300 3500 
L 978 3500 
L 1906 2253 
L 2834 3500 
L 3513 3500 
z
" transform="scale(0.015625)"/>
      </defs>
      <use xlink:href="#DejaVuSans-56"/>
      <use xlink:href="#DejaVuSans-5c" transform="translate(52.09375 0)"/>
      <use xlink:href="#DejaVuSans-50" transform="translate(111.28125 0)"/>
      <use xlink:href="#DejaVuSans-45" transform="translate(208.6875 0)"/>
      <use xlink:href="#DejaVuSans-52" transform="translate(272.171875 0)"/>
      <use xlink:href="#DejaVuSans-4f" transform="translate(333.359375 0)"/>
      <use xlink:href="#DejaVuSans-4c" transform="translate(361.140625 0)"/>
      <use xlink:href="#DejaVuSans-46" transform="translate(388.921875 0)"/>
      <use xlink:href="#DejaVuSans-42" transform="translate(443.90625 0)"/>
      <use xlink:href="#DejaVuSans-48" transform="translate(493.90625 0)"/>
      <use xlink:href="#DejaVuSans-5b" transform="translate(553.6875 0)"/>
      <use xlink:href="#DejaVuSans-57" transform="translate(612.875 0)"/>
      <use xlink:href="#DejaVuSans-55" transform="translate(652.078125 0)"/>
      <use xlink:href="#DejaVuSans-44" transform="translate(693.1875 0)"/>
      <use xlink:href="#DejaVuSans-46" transform="translate(754.46875 0)"/>
      <use xlink:href="#DejaVuSans-57" transform="translate(809.453125 0)"/>
      <use xlink:href="#DejaVuSans-4c" transform="translate(848.65625 0)"/>
      <use xlink:href="#DejaVuSans-52" transform="translate(876.4375 0)"/>
      <use xlink:href="#DejaVuSans-51" transform="translate(937.625 0)"/>
     </g>
    </g>
    <g id="line2d_28">
     <path d="M 55.162344 209.792187 
L 63.162344 209.792187 
L 71.162344 209.792187 
" style="fill: none; stroke: #2ca02c; stroke-width: 1.5; stroke-linecap: square"/>
     <g>
      <use xlink:href="#md1f0756088" x="63.162344" y="209.792187" style="fill: #2ca02c; stroke: #2ca02c"/>
     </g>
    </g>
    <g id="text_20">
     <!-- llm_judge_zeroshot -->
     <g transform="translate(77.562344 212.592187) scale(0.08 -0.08)">
      <defs>
       <path id="DejaVuSans-4d" d="M 603 3500 
L 1178 3500 
L 1178 -63 
Q 1178 -731 923 -1031 
Q 669 -1331 103 -1331 
L -116 -1331 
L -116 -844 
L 38 -844 
Q 366 -844 484 -692 
Q 603 -541 603 -63 
L 603 3500 
z
M 603 4863 
L 1178 4863 
L 1178 4134 
L 603 4134 
L 603 4863 
z
" transform="scale(0.015625)"/>
       <path id="DejaVuSans-58" d="M 544 1381 
L 544 3500 
L 1119 3500 
L 1119 1403 
Q 1119 906 1312 657 
Q 1506 409 1894 409 
Q 2359 409 2629 706 
Q 2900 1003 2900 1516 
L 2900 3500 
L 3475 3500 
L 3475 0 
L 2900 0 
L 2900 538 
Q 2691 219 2414 64 
Q 2138 -91 1772 -91 
Q 1169 -91 856 284 
Q 544 659 544 1381 
z
M 1991 3584 
L 1991 3584 
z
" transform="scale(0.015625)"/>
       <path id="DejaVuSans-4a" d="M 2906 1791 
Q 2906 2416 2648 2759 
Q 2391 3103 1925 3103 
Q 1463 3103 1205 2759 
Q 947 2416 947 1791 
Q 947 1169 1205 825 
Q 1463 481 1925 481 
Q 2391 481 2648 825 
Q 2906 1169 2906 1791 
z
M 3481 434 
Q 3481 -459 3084 -895 
Q 2688 -1331 1869 -1331 
Q 1566 -1331 1297 -1286 
Q 1028 -1241 775 -1147 
L 775 -588 
Q 1028 -725 1275 -790 
Q 1522 -856 1778 -856 
Q 2344 -856 2625 -561 
Q 2906 -266 2906 331 
L 2906 616 
Q 2728 306 2450 153 
Q 2172 0 1784 0 
Q 1141 0 747 490 
Q 353 981 353 1791 
Q 353 2603 747 3093 
Q 1141 3584 1784 3584 
Q 2172 3584 2450 3431 
Q 2728 3278 2906 2969 
L 2906 3500 
L 3481 3500 
L 3481 434 
z
" transform="scale(0.015625)"/>
      </defs>
      <use xlink:href="#DejaVuSans-4f"/>
      <use xlink:href="#DejaVuSans-4f" transform="translate(27.78125 0)"/>
      <use xlink:href="#DejaVuSans-50" transform="translate(55.5625 0)"/>
      <use xlink:href="#DejaVuSans-42" transform="translate(152.96875 0)"/>
      <use xlink:href="#DejaVuSans-4d" transform="translate(202.96875 0)"/>
      <use xlink:href="#DejaVuSans-58" transform="translate(230.75 0)"/>
      <use xlink:href="#DejaVuSans-47" transform="translate(294.125 0)"/>
      <use xlink:href="#DejaVuSans-4a" transform="translate(357.609375 0)"/>
      <use xlink:href="#DejaVuSans-48" transform="translate(421.09375 0)"/>
      <use xlink:href="#DejaVuSans-42" transform="translate(482.625 0)"/>
      <use xlink:href="#DejaVuSans-5d" transform="translate(532.625 0)"/>
      <use xlink:href="#DejaVuSans-48" transform="translate(585.109375 0)"/>
      <use xlink:href="#DejaVuSans-55" transform="translate(646.640625 0)"/>
      <use xlink:href="#DejaVuSans-52" transform="translate(685.546875 0)"/>
      <use xlink:href="#DejaVuSans-56" transform="translate(746.734375 0)"/>
      <use xlink:href="#DejaVuSans-4b" transform="translate(798.828125 0)"/>
      <use xlink:href="#DejaVuSans-52" transform="translate(862.203125 0)"/>
      <use xlink:href="#DejaVuSans-57" transform="translate(923.390625 0)"/>
     </g>
    </g>
    <g id="line2d_29">
     <path d="M 55.162344 221.792812 
L 63.162344 221.792812 
L 71.162344 221.792812 
" style="fill: none; stroke: #d62728; stroke-width: 1.5; stroke-linecap: square"/>
     <g>
      <use xlink:href="#m4c90f258d4" x="63.162344" y="221.792812" style="fill: #d62728; stroke: #d62728"/>
     </g>
    </g>
    <g id="text_21">
     <!-- llm_judge_cot -->
     <g transform="translate(77.562344 224.592812) scale(0.08 -0.08)">
      <use xlink:href="#DejaVuSans-4f"/>
      <use xlink:href="#DejaVuSans-4f" transform="translate(27.78125 0)"/>
      <use xlink:href="#DejaVuSans-50" transform="translate(55.5625 0)"/>
      <use xlink:href="#DejaVuSans-42" transform="translate(152.96875 0)"/>
      <use xlink:href="#DejaVuSans-4d" transform="translate(202.96875 0)"/>
      <use xlink:href="#DejaVuSans-58" transform="translate(230.75 0)"/>
      <use xlink:href="#DejaVuSans-47" transform="translate(294.125 0)"/>
      <use xlink:href="#DejaVuSans-4a" transform="translate(357.609375 0)"/>
      <use xlink:href="#DejaVuSans-48" transform="translate(421.09375 0)"/>
      <use xlink:href="#DejaVuSans-42" transform="translate(482.625 0)"/>
      <use xlink:href="#DejaVuSans-46" transform="translate(532.625 0)"/>
      <use xlink:href="#DejaVuSans-52" transform="translate(587.609375 0)"/>
      <use xlink:href="#DejaVuSans-57" transform="translate(648.796875 0)"/>
     </g>
    </g>
    <g id="line2d_30">
     <path d="M 55.162344 233.793437 
L 63.162344 233.793437 
L 71.162344 233.793437 
" style="fill: none; stroke: #9467bd; stroke-width: 1.5; stroke-linecap: square"/>
     <g>
      <use xlink:href="#m51176eed8c" x="63.162344" y="233.793437" style="fill: #9467bd; stroke: #9467bd"/>
     </g>
    </g>
    <g id="text_22">
     <!-- self_repair_detect -->
     <g transform="translate(77.562344 236.593437) scale(0.08 -0.08)">
      <defs>
       <path id="DejaVuSans-49" d="M 2375 4863 
L 2375 4384 
L 1825 4384 
Q 1516 4384 1395 4259 
Q 1275 4134 1275 3809 
L 1275 3500 
L 2222 3500 
L 2222 3053 
L 1275 3053 
L 1275 0 
L 697 0 
L 697 3053 
L 147 3053 
L 147 3500 
L 697 3500 
L 697 3744 
Q 697 4328 969 4595 
Q 1241 4863 1831 4863 
L 2375 4863 
z
" transform="scale(0.015625)"/>
      </defs>
      <use xlink:href="#DejaVuSans-56"/>
      <use xlink:href="#DejaVuSans-48" transform="translate(52.09375 0)"/>
      <use xlink:href="#DejaVuSans-4f" transform="translate(113.625 0)"/>
      <use xlink:href="#DejaVuSans-49" transform="translate(141.40625 0)"/>
      <use xlink:href="#DejaVuSans-42" transform="translate(176.609375 0)"/>
      <use xlink:href="#DejaVuSans-55" transform="translate(226.609375 0)"/>
      <use xlink:href="#DejaVuSans-48" transform="translate(265.515625 0)"/>
      <use xlink:href="#DejaVuSans-53" transform="translate(327.046875 0)"/>
      <use xlink:href="#DejaVuSans-44" transform="translate(390.53125 0)"/>
      <use xlink:href="#DejaVuSans-4c" transform="translate(451.8125 0)"/>
      <use xlink:href="#DejaVuSans-55" transform="translate(479.59375 0)"/>
      <use xlink:href="#DejaVuSans-42" transform="translate(520.703125 0)"/>
      <use xlink:href="#DejaVuSans-47" transform="translate(570.703125 0)"/>
      <use xlink:href="#DejaVuSans-48" transform="translate(634.1875 0)"/>
      <use xlink:href="#DejaVuSans-57" transform="translate(695.71875 0)"/>
      <use xlink:href="#DejaVuSans-48" transform="translate(734.921875 0)"/>
      <use xlink:href="#DejaVuSans-46" transform="translate(796.453125 0)"/>
      <use xlink:href="#DejaVuSans-57" transform="translate(851.4375 0)"/>
     </g>
    </g>
   </g>
  </g>
 </g>
 <defs>
  <clipPath id="p7e211b6b8c">
   <rect x="47.962344" y="26.16" width="373.237656" height="219.555313"/>
  </clipPath>
 </defs>
</svg>
